<?xml version="1.0" encoding="UTF-8"?>
<svg xmlns="http://www.w3.org/2000/svg" width="475.36" height="205.44" xmlns:xlink="http://www.w3.org/1999/xlink" viewBox="0 0 475.36 205.44">
  <defs>
    <style>
      .cls-1 {
        fill: none;
      }

      .cls-2 {
        clip-path: url(#clippath);
      }

      .cls-3 {
        mask: url(#mask);
      }

      .cls-4 {
        fill: #6a431d;
      }

      .cls-5 {
        fill: #fff;
      }

      .cls-6 {
        fill: #6d492b;
      }

      .cls-7 {
        clip-path: url(#clippath-1);
      }
    </style>
    <clipPath id="clippath">
      <rect class="cls-1" x="464.36" y="41" width="11" height="8.5"/>
    </clipPath>
    <mask id="mask" x="128.24" y="12.21" width="67.21" height="67.2" maskUnits="userSpaceOnUse">
      <path class="cls-5" d="M161.87,52.53c-1.99-.03-3.34,1.3-3.39,3.32-.05,1.99,1.31,3.37,3.33,3.4,1.98,.03,3.34-1.3,3.39-3.32,.05-1.99-1.31-3.37-3.33-3.4m-27.56-30.22c.04,.11,.07,.19,.1,.27,1.12,2.86,2.24,5.71,3.36,8.57,.23,.6,.24,.6,.87,.52,1.58-.2,3.17-.38,4.77-.3,.22,.01,.35-.07,.48-.24,.91-1.26,2.05-2.29,3.35-3.12,2.91-1.86,6.09-2.62,9.53-2.25,2.69,.29,5.13,1.22,7.27,2.89,.39,.3,.71,.35,1.15,.22,2.36-.68,4.72-.68,7.08-.02,3.09,.85,5.67,2.48,7.61,5.07,.06,.08,.2,.14,.31,.15,.81,.03,1.61,.02,2.41,.08,.5,.03,.99,.15,1.49,.24,.2,.04,.29-.04,.37-.23,1.6-3.86,3.21-7.72,4.82-11.59,.03-.07,.06-.15,.09-.25h-55.07Zm54.41,23.5c-.01-.17-.01-.33-.04-.49-.2-1.21-.88-2.13-1.84-2.84-1.89-1.4-4.01-1.88-6.31-1.3-1.22,.31-2.41,.73-3.61,1.09-.21,.06-.41,.12-.63,.18-.32-1.06-.62-2.1-.94-3.13-.1-.31-.22-.62-.38-.9-.53-.96-1.34-1.66-2.3-2.15-2.36-1.22-4.77-1.34-7.23-.3-.91,.39-1.85,.71-2.77,1.05-.06,.02-.18,0-.21-.04-.57-.67-1.15-1.34-1.68-2.04-.38-.51-.81-.97-1.34-1.32-1.19-.79-2.52-1.16-3.94-1.23-1.72-.08-3.31,.33-4.76,1.28-1.04,.68-1.8,1.59-2.13,2.83-.25,.92-.54,1.83-.82,2.75-.02,.06-.05,.12-.07,.18-.9-.27-1.77-.52-2.64-.8-1.39-.45-2.8-.68-4.26-.47-1.68,.24-3.19,.85-4.43,2.03-.72,.68-1.26,1.48-1.36,2.49-.06,.6-.03,1.21-.04,1.81,0,.43,0,.87,0,1.32h53.75Zm-53.73,6.74v13.43c1.84,.05,3.43,.69,4.72,1.98,1.3,1.3,1.94,2.89,1.98,4.72h40.31c.05-1.85,.69-3.43,1.98-4.72,1.3-1.3,2.89-1.93,4.72-1.98v-13.42h-16.78v6.58c0,.74-.09,1.46-.32,2.16-.93,2.82-3.45,4.67-6.43,4.69-2.22,.01-4.45,0-6.68,0-1.41,0-2.72-.4-3.87-1.23-1.92-1.4-2.86-3.3-2.86-5.68v-6.52h-16.77Zm60.46,26.86h-67.19c0-.09-.01-.18-.01-.27,0-11.97,0-23.94,0-35.91,0-3.56,1.38-6.47,4.18-8.68,.15-.12,.18-.21,.11-.39-1.39-3.85-2.78-7.7-4.18-11.54-.17-.46-.1-.92-.06-1.37,.2-1.98,.88-3.76,2.13-5.32,1.08-1.35,2.44-2.34,4.05-2.98,1.35-.54,2.74-.74,4.19-.74,15.48,0,30.96,0,46.44,0,1.74,0,3.4,.32,4.96,1.11,1.59,.8,2.86,1.96,3.81,3.46,1,1.58,1.51,3.32,1.56,5.19,0,.2-.03,.42-.1,.61-1.72,4.53-3.44,9.06-5.17,13.59-.03,.08-.06,.15-.06,.18,.73,.65,1.46,1.24,2.12,1.91,1.52,1.54,2.57,3.35,3,5.49,.14,.72,.22,1.46,.22,2.2,.01,11.06,0,22.12,0,33.19v.28h0Z"/>
    </mask>
    <clipPath id="clippath-1">
      <rect class="cls-1" x="120.24" y="5.21" width="84" height="75"/>
    </clipPath>
  </defs>
  <g id="Calque_1" data-name="Calque 1">
    <g id="Design">
      <g class="cls-2">
        <path class="cls-6" d="M467.31,41.24c-1.04,.39-1.79,1.15-2.22,1.97-.49,.94-.62,2-.45,3,.16,.93,.61,1.87,1.49,2.54,.39,.29,.85,.53,1.37,.65,.58,.14,1.22,.13,1.79-.02,1.03-.27,1.83-.96,2.25-1.72,.06-.1,.11-.21,.15-.32,.05-.12-.19-.17-.24-.05-.32,.76-1,1.47-1.95,1.82-.51,.19-1.12,.25-1.68,.17-.5-.07-.96-.27-1.35-.53-.88-.59-1.34-1.44-1.54-2.32-.21-.94-.14-1.93,.22-2.85,.36-.93,1.09-1.78,2.19-2.28,.06-.03,0-.1-.06-.08"/>
        <path class="cls-6" d="M466.33,41.93c.46-.28,.92-.57,1.49-.69,.41-.09,1.17-.14,1.26,.3,.08,.39-.2,.8-.36,1.16-.07,.17-.15,.37-.08,.55,.06,.16,.25,.26,.45,.16,.19-.09,.28-.25,.41-.39,.17-.17,.39-.33,.64-.43,.31-.13,.68-.17,.99-.01,.27,.13,.43,.37,.55,.59,.13,.26,.21,.54,.27,.82,.18,.93,.05,1.91-.28,2.82-.05,.12,.2,.18,.25,.05,.33-.88,.44-1.82,.3-2.73-.04-.29-.11-.58-.23-.86-.11-.26-.27-.53-.53-.73-.25-.19-.57-.28-.92-.25-.53,.05-.99,.35-1.29,.68-.05,.05-.28,.36-.36,.28-.06-.06-.05-.17-.04-.24,.03-.12,.08-.24,.13-.36,.17-.37,.42-.78,.31-1.19-.13-.48-.91-.51-1.41-.4-.65,.13-1.14,.47-1.63,.81-.05,.04,.02,.09,.08,.06"/>
        <path class="cls-6" d="M469.85,45.59c.88,.66,1.82,1.29,2.74,1.92,.74,.51,1.48,1.02,2.21,1.53,.08,.06,.17,.12,.25,.18,.02,.02,.04,.03,.06,.04,.02,.02,.07,.05,.08,.07,.01,.05-.05,.03-.09,.02-.1-.04-.2-.1-.29-.15-.15-.09-.3-.18-.44-.27-.75-.47-1.49-.96-2.22-1.45-.67-.44-1.34-.88-2.02-1.31-.14-.09-.28-.18-.43-.28-.09-.06-.22,.04-.13,.1,.76,.5,1.53,.99,2.29,1.49,.76,.5,1.51,1.01,2.29,1.49,.27,.17,.54,.35,.83,.48,.08,.04,.17,.07,.25,.05,.12-.03,.17-.14,.12-.22-.05-.07-.13-.13-.2-.19-.64-.48-1.31-.94-1.98-1.39-.96-.66-1.93-1.33-2.93-1.96-.11-.07-.22-.13-.33-.2-.04-.02-.09,.03-.05,.05"/>
        <path class="cls-6" d="M469.81,45.55c-.04,.06-.08,.11-.12,.17-.05,.05-.12,.09-.16,.15-.03,.04,.03,.09,.09,.07,.08-.04,.12-.1,.16-.16,.05-.06,.09-.12,.12-.19,.02-.04-.06-.07-.09-.03"/>
        <path class="cls-6" d="M469.92,45.56c-.08-.11-.22-.2-.32-.3-.24-.22-.49-.42-.75-.63-.05-.05-.14,0-.15,.05,0,.12-.11,.23-.2,.32-.04,.05-.09,.09-.16,.11-.01,0-.03,.01-.05,.02,0,0-.06,.02-.03,0-.1,.02-.06,.15,.04,.12,.13-.03,.23-.1,.31-.18,.12-.12,.22-.26,.24-.41-.05,.02-.1,.03-.15,.05,.24,.22,.5,.42,.78,.61,.12,.08,.25,.19,.39,.25,.02,0,.04,0,.03-.02"/>
        <path class="cls-6" d="M468.23,45.24c.11,.08,.23,.14,.34,.2,.11,.06,.21,.12,.31,.19,.11,.07,.22,.13,.34,.19,.1,.05,.22,.14,.34,.14,.05,0,.08-.04,.05-.07-.06-.08-.21-.13-.31-.18-.12-.06-.23-.12-.34-.18-.22-.12-.45-.26-.7-.33-.03-.01-.06,.03-.03,.04"/>
        <path class="cls-6" d="M468.85,44.62c-.2-.16-.39-.33-.65-.42-.11-.04-.24-.06-.36-.06-.11,0-.26,.01-.32,.09-.06,.08-.05,.2-.03,.29,.02,.11,.08,.21,.16,.29,.15,.17,.38,.34,.62,.44,.07,.03,.14-.04,.09-.09-.16-.12-.34-.22-.49-.35-.08-.07-.14-.14-.18-.23-.03-.07-.08-.2-.03-.27,.04-.06,.21-.05,.29-.04,.11,0,.21,.04,.31,.09,.2,.09,.38,.21,.57,.3,.03,.01,.06-.02,.04-.04"/>
        <path class="cls-6" d="M470.51,44.6c.21-.19,.27-.5,.09-.72-.16-.2-.48-.27-.72-.11-.23,.15-.33,.42-.29,.65,.04,.21,.26,.44,.57,.41,.16-.01,.3-.11,.38-.22,.1-.12,.19-.3,.16-.44,0-.05-.1-.04-.11,0-.05,.13-.06,.26-.16,.38-.09,.11-.24,.2-.42,.13-.24-.1-.27-.33-.21-.52,.06-.18,.29-.46,.56-.29,.28,.18,.18,.47,.11,.7,0,.01,.02,.03,.03,.01"/>
        <path class="cls-6" d="M467.23,42.74c.06,.03,.02,.12-.01,.16-.02,.03,0,.08,.06,.08-.01-.03-.02-.03-.03,0,0,0,0,.02-.01,.03,0,.02-.01,.05-.02,.07-.03,.06-.08,.11-.09,.18-.03,.13-.03,.25-.16,.35-.11,.09-.26,.12-.33,.24-.04,.06-.07,.11-.17,.05-.06-.03-.14-.11-.15-.17,0-.06,.05-.11,.05-.17,0-.06-.02-.11-.05-.16-.03-.06-.05-.12,0-.18,.04-.05,.1-.08,.15-.12,.05-.03,.1-.07,.13-.11,.05-.05,.07-.12,.13-.16,.05-.04,.12-.06,.19-.07,.07,0,.2-.03,.27,.01,.08,.05,.2-.04,.12-.09-.12-.08-.29-.07-.44-.05-.18,.02-.29,.08-.38,.2-.08,.11-.22,.17-.32,.27-.11,.11-.07,.23-.02,.36,.01,.03,.03,.07,.03,.1,0,.04-.03,.07-.04,.1-.02,.07,0,.13,.05,.2,.09,.1,.21,.21,.38,.19,.19-.02,.17-.17,.3-.24,.14-.08,.26-.15,.33-.28,.04-.07,.05-.14,.06-.22,0-.09,.07-.16,.09-.25,.02-.07,.09-.22-.08-.2,.02,.02,.04,.04,.06,.07,.05-.09,.06-.22-.08-.26-.05-.01-.07,.04-.03,.06"/>
        <path class="cls-6" d="M469.84,48.1c-.07-.02-.07-.1-.06-.15,0-.03-.03-.08-.08-.06,.02,.03,.03,.03,.03,0v-.03s0-.05,0-.07c0-.06,.02-.12,.01-.18-.01-.07-.05-.13-.05-.2,0-.07,.02-.13,.05-.19,.04-.06,.11-.11,.15-.17,.03-.05,.05-.09,.05-.14,0-.05,0-.08,.08-.08,.03,0,.07,.02,.1,.03,.08,.03,.16,.07,.16,.14,0,.06,0,.11,.04,.16,.03,.05,.07,.09,.11,.13,.04,.04,.08,.09,.07,.14,0,.06-.06,.11-.1,.16-.04,.05-.07,.1-.09,.16-.02,.06-.01,.12-.06,.17-.07,.08-.28,.18-.41,.14-.1-.03-.14,.09-.04,.12,.14,.04,.32-.02,.44-.08,.16-.07,.22-.15,.25-.29,.03-.13,.15-.22,.19-.35,.04-.13-.06-.22-.15-.32-.06-.06-.06-.11-.06-.18,0-.06-.04-.12-.11-.16-.12-.08-.28-.15-.44-.11-.07,.02-.12,.06-.14,.11-.03,.07,0,.13-.06,.19-.05,.06-.11,.1-.14,.17-.04,.06-.06,.13-.06,.19,0,.08,.02,.15,.05,.23,.02,.08,0,.16,0,.24,0,.08,.01,.21,.17,.15l-.1-.04c0,.09,.04,.22,.18,.23,.05,0,.05-.05,.01-.06"/>
        <path class="cls-6" d="M466.75,45.15c.05-.1,.03-.23,0-.33-.02-.1-.04-.21-.17-.26-.07-.03-.15-.03-.22,0-.03,.01-.06,.04-.09,.04-.03,0-.08-.05-.12-.05-.1-.02-.14,.04-.22,.07-.04,.01-.1,0-.14,.02-.04,.01-.08,.04-.11,.07-.06,.06-.1,.13-.14,.2-.04,.08-.08,.16-.08,.25,0,.06,.03,.13,.09,.18,.04,.03,.08,.04,.1,.09,.02,.03,0,.08,0,.11,0,.13-.02,.27,.14,.35,.14,.07,.32,.07,.48,.06,.09,0,.19-.02,.26-.08,.03-.03,.05-.06,.06-.09,.02-.06,.03-.07,.09-.11,.08-.05,.12-.11,.12-.19,0-.1-.08-.2-.05-.3,.02-.09-.13-.12-.17-.04-.03,.06-.02,.12,0,.18,.02,.06,.06,.12,.04,.18-.01,.06-.09,.07-.13,.12-.05,.05-.04,.12-.09,.17-.08,.07-.31,.06-.42,.04-.18-.03-.18-.15-.16-.27,0-.1,0-.2-.08-.27-.07-.05-.11-.07-.09-.16,.01-.07,.05-.13,.08-.19,.03-.05,.06-.13,.13-.16,.03-.01,.08,0,.12-.01,.04,0,.07-.02,.09-.04,.03-.02,.02-.03,.05-.02,.03,0,.05,.03,.08,.04,.06,.02,.12,.01,.17-.01,.06-.03,.11-.07,.16,0,.02,.03,.03,.08,.04,.11,.02,.09,.06,.2,.02,.3-.03,.07,.11,.1,.14,.03"/>
        <path class="cls-6" d="M466.89,46.74c-.04-.12-.13-.25-.29-.3-.06-.02-.12-.02-.18,0-.04,0-.07,.03-.1,.05-.04,.03-.08,.09-.14,.09-.04,0-.08-.02-.12-.02-.04,0-.07,.02-.1,.04-.07,.05-.08,.13-.05,.2,.02,.05,.05,.09,.06,.13,.01,.04,0,.09,0,.13,0,.09,0,.19,.02,.28,.04,.16,.13,.34,.28,.47,.06,.05,.15,.1,.24,.11,.1,0,.2-.06,.28-.02,.12,.06,.26,.22,.43,.13,.08-.04,.11-.13,.15-.2,.04-.07,.11-.15,.09-.24,0-.04-.04-.07-.08-.1-.04-.04-.04-.07-.05-.12-.02-.09-.1-.17-.16-.25-.1-.12-.23-.25-.3-.39-.03-.07-.18-.05-.15,.03,.03,.08,.09,.15,.15,.22,.07,.1,.15,.2,.22,.29,.05,.07,.06,.13,.08,.2,.02,.06,.12,.1,.11,.16-.01,.06-.07,.14-.11,.2-.02,.03-.03,.07-.09,.05-.03,0-.06-.04-.09-.05-.09-.06-.19-.13-.32-.11-.1,.02-.15,.05-.24,0-.07-.05-.11-.11-.15-.17-.08-.13-.12-.27-.12-.41,0-.07,0-.14,0-.21,0-.04-.01-.07-.03-.11-.01-.02-.06-.08-.05-.1,.01-.03,.05,0,.09,0,.03,0,.07,0,.1-.02,.08-.03,.1-.09,.17-.13,.13-.07,.27,.12,.29,.19,.03,.07,.16,.04,.14-.03"/>
        <path class="cls-6" d="M468.07,48.13c.03,.09,0,.16-.06,.24-.06,.07-.03,.13,0,.21,.03,.13,.06,.26,.25,.29,.08,.01,.12,.08,.2,.11,.09,.04,.2,.02,.29,0,.19-.04,.26-.13,.32-.27,.04-.08,.07-.16,.1-.25,.03-.08,.07-.17,.08-.26,0-.06-.02-.11-.07-.16-.07-.07-.09-.11-.1-.2-.02-.13-.08-.23-.25-.27-.06-.01-.14-.02-.18-.06-.05-.05-.07-.1-.17-.09-.09,0-.15,.07-.18,.14-.03,.06-.02,.16-.1,.2-.08,.04-.15,.04-.17,.12,0,.03,0,.06,.01,.1,.02,.06,0,.11-.03,.17-.04,.07,.11,.11,.16,.05,.04-.05,.06-.1,.06-.15,0-.03,0-.06-.01-.09,0-.04-.02-.04,.02-.06,.11-.05,.16-.1,.19-.2,0-.02,.05-.12,.03-.12,0,0,.05,.05,.05,.06,.02,.02,.04,.03,.07,.04,.1,.04,.26,.03,.3,.13,.04,.1,.02,.19,.1,.28,.05,.06,.1,.08,.08,.16-.02,.07-.05,.15-.07,.22-.02,.06-.05,.13-.08,.19-.03,.06-.05,.14-.12,.18-.05,.03-.16,.05-.23,.04-.08,0-.11-.07-.18-.1-.03-.01-.06-.02-.09-.02-.06,0-.08-.02-.1-.07-.03-.06-.07-.14-.08-.21,0-.06,.05-.12,.06-.19,0-.06-.02-.11-.05-.16-.02-.03-.07,0-.06,.02"/>
        <path class="cls-6" d="M468.28,41.01c-1.04-.06-2.02,.52-2.62,1.13-.57,.57-.92,1.25-1.11,1.95-.36,1.33-.23,2.83,.69,4.02,.59,.77,1.66,1.39,2.86,1.37,.08,0,.08-.1,0-.09-1.07,0-2.01-.48-2.6-1.15-.48-.56-.77-1.22-.9-1.88-.12-.65-.12-1.33,.02-1.99,.14-.68,.43-1.35,.91-1.93,.3-.35,.67-.67,1.11-.92,.47-.27,1.04-.48,1.63-.5,0,0,0,0,0,0"/>
        <path class="cls-6" d="M471.21,42.42c-.22-.1-.45-.19-.7-.21-.24-.01-.48,.04-.69,.14-.21,.1-.39,.24-.55,.38-.16,.15-.3,.36-.54,.45-.08,.03-.01,.12,.07,.09,.21-.08,.34-.24,.48-.37,.15-.15,.31-.3,.51-.41,.19-.11,.43-.19,.67-.2,.26,0,.51,.07,.76,.13,0,0,0,0,0,0"/>
        <path class="cls-6" d="M470.17,43.81c.06,.06,.12,.11,.16,.17,.05,.09,.08,.18,.08,.27,0,.1-.02,.2-.08,.29-.06,.1-.14,.16-.28,.18-.04,0-.03,.05,0,.05,.3,.03,.4-.32,.43-.47,.04-.18-.05-.45-.31-.5-.01,0-.03,0-.02,.02"/>
      </g>
    </g>
  </g>
  <g id="Objectif">
    <path class="cls-4" d="M317.14,39.56c-1.73-17.93-17.26-32.62-36.81-31.84-18.27,.73-33.3,15.44-33.94,34.22-.63,18.39,12.41,31.67,25.11,35.08-.63-1.42-.99-2.99-.99-4.65,0-.6,.05-1.18,.13-1.75-.11-.17-.3-.29-.58-.41-12.77-5.53-19.94-19.33-17.14-32.93,3.16-15.37,17.74-25.58,33.27-23.3,14.4,2.11,25.34,14.62,25.11,29.19-.19,12.4-6.18,21.35-17.28,26.85-.38,.19-.61,.35-.75,.58,.09,.58,.14,1.17,.14,1.77,0,1.63-.34,3.17-.95,4.57,12.56-3.4,26.61-17.37,24.67-37.39Z"/>
    <path class="cls-4" d="M288.21,72.36c0-3.48-2.88-6.31-6.39-6.29-3.38,.02-6.22,2.9-6.21,6.31,0,3.43,2.84,6.29,6.23,6.29,3.52,0,6.38-2.83,6.37-6.31Z"/>
    <path class="cls-4" d="M281.86,21.06c8.4,.07,15.3,5.85,16.85,14.11,1.37,7.3-2.44,14.81-9.3,18.24-1.58,.79-2.66,2.02-3.29,3.63-.17,.44-.27,.92-.29,1.39-.12,2.1-1.86,3.78-3.91,3.77-2.14-.02-3.91-1.67-3.92-3.83-.01-4.26,1.81-7.65,5.13-10.25,.85-.67,1.81-1.22,2.78-1.71,4.04-2.04,6.05-6.46,4.87-10.8-.99-3.65-4.7-7.14-9.86-6.67-4.12,.38-7.67,3.83-8.19,8.13-.07,.61-.05,1.23-.16,1.82-.37,1.91-2.19,3.29-4.05,3.13-2.06-.17-3.62-1.81-3.66-3.84-.2-9.25,7.7-17.22,17-17.13Z"/>
  </g>
  <g id="_Invention" data-name="£Invention">
    <path class="cls-4" d="M172.6,195.04c0,1.31,0,2.53,0,3.75-.01,2.64-1.67,4.3-4.29,4.31-4.31,0-8.62,0-12.93,0-2.52,0-4.21-1.65-4.27-4.18-.03-1.25,0-2.51,0-3.88-.6,0-1.15,0-1.7,0-2.46,0-4.93,0-7.39,0-1.1,0-1.49-.34-1.68-1.44-.25-1.46-.48-2.92-.74-4.38-.17-.91-1.74-1.54-2.49-1.01-1.19,.84-2.36,1.7-3.55,2.53-.96,.67-1.49,.65-2.29-.15-1.75-1.73-3.49-3.48-5.23-5.23-.78-.78-.82-1.32-.19-2.22,.87-1.24,1.76-2.46,2.63-3.69,.44-.63-.22-2.26-.98-2.39-1.51-.27-3.03-.51-4.54-.79-1.03-.19-1.39-.62-1.4-1.66-.01-2.49-.01-4.98,0-7.47,0-1.02,.41-1.48,1.41-1.65,1.4-.24,2.81-.47,4.22-.7,1.18-.2,1.83-1.72,1.14-2.68-.83-1.16-1.67-2.32-2.49-3.49-.62-.89-.58-1.44,.2-2.23,1.73-1.75,3.48-3.49,5.23-5.23,.78-.77,1.32-.81,2.23-.18,1.19,.83,2.38,1.68,3.55,2.54,.36,.26,.74,.54,1.1,.17,.18-.19,.22-.64,.16-.93-.87-4.24-.86-8.44,.33-12.62,1.65-5.78,5.01-10.32,9.99-13.64,4.3-2.86,9.09-4.19,14.23-3.95,6.41,.3,11.98,2.71,16.41,7.4,6.11,6.45,7.86,14.15,6.23,22.76-.06,.32,.08,.68,.13,1.03,.37-.07,.81-.05,1.11-.24,1.19-.79,2.33-1.65,3.5-2.47,.95-.67,1.47-.63,2.29,.18,1.75,1.73,3.49,3.47,5.23,5.22,.74,.75,.8,1.29,.2,2.16-.86,1.24-1.76,2.46-2.63,3.69-.48,.68,.15,2.31,.98,2.46,1.49,.27,2.98,.5,4.47,.76,1.03,.18,1.42,.61,1.42,1.63,0,2.52,0,5.04,0,7.56,0,1-.35,1.42-1.34,1.6-1.48,.27-2.98,.51-4.46,.78-.93,.16-1.55,1.75-1,2.53,.83,1.16,1.66,2.32,2.48,3.49,.72,1.02,.69,1.48-.17,2.35-1.72,1.73-3.44,3.45-5.17,5.17-.82,.81-1.33,.85-2.29,.17-1.17-.82-2.33-1.65-3.49-2.48-.85-.6-2.39,0-2.57,1.02-.26,1.49-.51,2.98-.78,4.46-.17,.94-.6,1.29-1.56,1.29-2.74,0-5.49,0-8.23,0-.3,0-.6,0-.98,0Zm.12-24.21c.28-2.61,1.45-4.74,3.02-6.69,.7-.87,1.42-1.73,2.17-2.56,5.08-5.62,6.38-12.25,4.9-19.46-1.28-6.26-4.86-11.04-10.44-14.11-7.06-3.88-14.29-3.88-21.27,.16-6.8,3.94-10.33,10.06-10.71,17.9-.24,4.9,.77,9.52,3.83,13.51,1.17,1.53,2.45,2.98,3.68,4.47,1.52,1.84,2.68,3.86,3.01,6.26,.08,.57,.4,.56,.81,.56,2.69,0,5.37,0,8.06,0,.22,0,.43-.02,.65-.04v-8.07h-2.58v-2.59h7.95v2.67h-2.56v8h9.46Zm-44.15-13.01c.88,1.24,1.77,2.53,2.69,3.79,.45,.61,.48,1.21,.17,1.88-.38,.84-.72,1.69-1.05,2.55-.25,.66-.68,1.05-1.4,1.16-1.57,.24-3.14,.53-4.72,.8v5.78c1.57,.26,3.11,.54,4.65,.77,.79,.12,1.25,.52,1.5,1.26,.25,.74,.51,1.49,.87,2.17,.48,.9,.42,1.65-.22,2.47-.91,1.16-1.72,2.39-2.52,3.52,1.41,1.41,2.73,2.73,4.1,4.11,1.23-.87,2.52-1.76,3.78-2.69,.61-.45,1.19-.52,1.88-.21,.84,.38,1.69,.73,2.55,1.05,.7,.26,1.09,.69,1.2,1.45,.23,1.55,.52,3.08,.79,4.62h2.91c.22-3.15-.77-6.33,.84-9.31-6.94-.52-11.03-3.45-12.53-8.95-.67-2.45-.56-4.88,.3-7.26,1.2-3.3,3.47-5.62,6.64-7.05-.62-1.22-1.21-2.37-1.87-3.67-1.31,1.25-2.41,.64-3.53-.26-.96-.76-1.99-1.43-2.94-2.1-1.37,1.37-2.69,2.7-4.1,4.11Zm54.17,1.89c5.94,2.72,8.09,8.63,7.13,13.49-.48,2.45-1.61,4.58-3.41,6.32-2.61,2.51-5.76,3.61-9.27,3.44,.27,.83,.71,1.6,.75,2.39,.1,2.31,.04,4.63,.04,7.02,.69,0,1.5-.03,2.3,.01,.51,.02,.67-.17,.74-.65,.19-1.36,.45-2.7,.66-4.05,.11-.71,.46-1.16,1.14-1.41,.81-.3,1.63-.59,2.4-.98,.83-.42,1.51-.35,2.25,.21,1.2,.91,2.45,1.75,3.56,2.55,1.4-1.4,2.74-2.74,4.12-4.12-.85-1.2-1.74-2.49-2.66-3.75-.45-.61-.49-1.2-.17-1.88,.37-.81,.72-1.64,1.02-2.48,.28-.77,.77-1.16,1.59-1.27,1.51-.21,3.02-.5,4.52-.76v-5.78c-1.58-.27-3.12-.56-4.66-.79-.76-.11-1.19-.52-1.44-1.22-.29-.79-.57-1.58-.95-2.32-.42-.82-.35-1.51,.21-2.24,.91-1.19,1.75-2.44,2.52-3.52-1.43-1.42-2.77-2.75-4.14-4.12-.91,.64-1.96,1.3-2.9,2.08-1.09,.9-2.15,1.26-3.4,.38-.04-.02-.11,0-.18,0-.57,1.13-1.15,2.27-1.75,3.46Zm-20.87,21.9h0c3.91,0,7.83,0,11.74,0,1.21,0,1.67-.45,1.67-1.67,0-1.57,0-3.13,0-4.7,0-1.18-.49-1.69-1.69-1.69-7.83,0-15.66,0-23.49,0-1.17,0-1.68,.53-1.69,1.71-.01,1.54-.01,3.08,0,4.61,0,1.29,.48,1.74,1.79,1.74,3.89,0,7.77,0,11.66,0Zm-.06,10.75h0c3.94,0,7.89,0,11.83,0,1.17,0,1.64-.46,1.65-1.6,0-1.57,0-3.13,0-4.7,0-1.24-.48-1.75-1.71-1.75-7.8,0-15.6,0-23.41,0-1.26,0-1.74,.49-1.75,1.73-.01,1.54-.01,3.08,0,4.61,0,1.25,.48,1.71,1.73,1.71,3.89,0,7.77,0,11.66,0Zm16.17-12.08c2.79-.04,5-1.08,6.87-2.98,4.5-4.59,2.73-12.75-3.26-15.06-.41-.16-.64-.13-.93,.22-.85,1.04-1.75,2.04-2.6,3.07-1.19,1.43-2.19,2.97-2.56,4.84-.08,.4-.19,.75,.35,1.04,1.46,.78,2.13,2.07,2.12,3.72,0,1.67,0,3.35,0,5.15Zm-29.49-9.2c-.37-1.04-.54-2.15-1.12-2.99-1.38-1.99-2.93-3.86-4.45-5.75-.11-.14-.54-.19-.71-.1-.88,.48-1.82,.9-2.56,1.55-4.93,4.36-4.28,11.71,1.33,15.18,1.42,.88,2.98,1.32,4.75,1.27,0-1.57,.04-3.08,0-4.58-.06-2.04,.64-3.6,2.77-4.59Zm5.39,23.98c0,1.47-.06,2.94,.03,4.39,.04,.63,.61,.96,1.28,.96,.95,0,1.9,0,2.85,0,3.41,0,6.82,0,10.23,0,.78,0,1.51-.21,1.57-1.04,.11-1.43,.03-2.87,.03-4.32h-16Z"/>
    <path class="cls-4" d="M161.82,154.73c-.87,0-1.73,0-2.6,0-.62,0-1.18-.28-1.26-.89-.15-1.09-.9-1.69-1.61-2.35-1.07-.99-1.82-2.19-2.21-3.59-1.31-4.62,1.23-8.41,6.1-9.13,2.13-.31,4.19-.07,6.11,.93,3.55,1.86,4.21,5.22,3.12,8.59-.44,1.36-1.26,2.48-2.33,3.43-.62,.56-1.23,1.1-1.34,2.04-.08,.65-.63,.96-1.29,.97-.89,.01-1.79,0-2.68,0h0Zm.09-2.69c.39,0,.79,.03,1.17-.01,.19-.02,.4-.14,.53-.29,.65-.72,1.25-1.5,1.93-2.18,.86-.86,1.41-1.87,1.63-3.06,.37-2.04-.4-3.67-2.23-4.5-2.16-.97-4.35-.96-6.47,.15-1.14,.59-1.85,1.55-1.97,2.84-.17,1.84,.43,3.4,1.8,4.67,.53,.49,1.13,.98,1.46,1.6,.38,.7,.86,.85,1.55,.78,.19-.02,.39,0,.59,0Z"/>
    <path class="cls-4" d="M157.85,156.1h7.97v2.61h-7.97v-2.61Z"/>
    <path class="cls-4" d="M163.15,135.88h-2.59v-2.61h2.59v2.61Z"/>
    <path class="cls-4" d="M151.03,147.98h-2.58v-2.62h2.58v2.62Z"/>
    <path class="cls-4" d="M175.27,145.4v2.55h-2.61v-2.55h2.61Z"/>
    <path class="cls-4" d="M168.39,138.03c-.79-.45-1.52-.87-2.31-1.32,.44-.76,.87-1.49,1.34-2.3,.79,.43,1.54,.85,2.34,1.29-.44,.75-.87,1.49-1.36,2.34Z"/>
    <path class="cls-4" d="M157.63,136.72l-2.24,1.3-1.31-2.25,2.24-1.3,1.31,2.25Z"/>
    <path class="cls-4" d="M153.16,140.13l-1.31,2.24-2.25-1.31,1.31-2.24,2.25,1.31Z"/>
    <path class="cls-4" d="M174.1,141.11l-2.24,1.3-1.31-2.25,2.24-1.3,1.31,2.25Z"/>
  </g>
  <g id="lignage">
    <path class="cls-6" d="M53.74,23.14c0,6.39-5.32,11.57-11.89,11.57s-11.89-5.18-11.89-11.57,5.32-11.57,11.89-11.57,11.89,5.18,11.89,11.57"/>
    <path class="cls-6" d="M25.84,11.57c0,6.39-5.32,11.57-11.89,11.57S2.06,17.96,2.06,11.57,7.38,0,13.95,0s11.89,5.18,11.89,11.57"/>
    <path class="cls-6" d="M81.63,11.57c0,6.39-5.32,11.57-11.89,11.57s-11.89-5.18-11.89-11.57S63.18,0,69.74,0s11.89,5.18,11.89,11.57"/>
    <path class="cls-6" d="M20.39,27.84H7.51C-.36,28.01,0,33.76,0,33.76l5.01,40.02H22.89l5.01-40.02s.36-5.74-7.51-5.92"/>
    <path class="cls-6" d="M48.28,39.67h-12.87c-7.87,.17-7.51,5.92-7.51,5.92l5.01,40.02h17.88l5.01-40.02s.36-5.74-7.51-5.92"/>
    <path class="cls-6" d="M76.18,27.84h-12.87c-7.87,.17-7.51,5.92-7.51,5.92l5.01,40.02h17.88l5.01-40.02s.36-5.74-7.51-5.92"/>
  </g>
  <g id="End-turn">
    <path id="arrow" class="cls-6" d="M.45,169.74c.1-.14,.18-.3,.3-.43,1.59-1.81,3.17-3.62,4.77-5.43,.05-.05,.1-.11,.15-.16,.77-.91,.74-1.04-.07-1.9-1.54-1.63-3.05-3.29-4.57-4.94-.03-.03-.06-.05-.08-.08-.11-.28-.22-.55-.32-.83,.27-.06,.55-.18,.82-.17,.64,.02,1.29,.05,1.92,.16,.26,.04,.52,.27,.7,.47,1.33,1.57,2.63,3.17,3.94,4.75,.35,.41,1.69,.67,2.12,.38,.1-.07,.15-.43,.06-.55-.38-.52-.79-1.01-1.23-1.48-.77-.84-1.58-1.65-2.33-2.5-.24-.27-.33-.66-.5-.99,.35-.07,.69-.18,1.05-.22,1.3-.12,2.25,.35,3.03,1.44,.98,1.37,2.16,2.6,3.2,3.93,.41,.53,.92,.46,1.44,.44,.33,0,.66-.12,1-.18-.16-.29-.27-.63-.48-.88-1.14-1.35-2.31-2.66-3.46-4-.12-.14-.18-.34-.27-.51,.19-.08,.39-.24,.58-.24,1.3-.02,2.5,.15,3.39,1.31,.96,1.26,2.05,2.41,3.04,3.63,.34,.42,.7,.57,1.22,.57,5.27,0,10.55,0,15.82,0,10.99,.02,21.96,.03,32.95,.05,.85,0,.95-.12,.6-.93-.51-1.18-1.08-2.33-1.62-3.5-.13-.28-.22-.57-.38-1.02,.38,.08,.65,.08,.88,.18,3.49,1.52,6.97,3.06,10.46,4.59,1.46,.64,2.93,1.28,4.39,1.93,.12,.05,.21,.17,.32,.26-.12,.1-.21,.24-.35,.3-3.56,1.51-7.11,3-10.67,4.5-1.44,.61-2.88,1.22-4.32,1.83-.19,.08-.41,.11-.74,.19,.09-.28,.12-.45,.19-.6,.62-1.31,1.24-2.62,1.86-3.93,.34-.72,.26-.86-.54-.86-15.39,0-30.77,0-46.17,.02-.92,0-1.84,.06-2.76,.07-.6,0-1.01,.27-1.4,.73-1.1,1.35-2.27,2.65-3.4,3.98-.36,.42-.8,.61-1.35,.63-.52,.02-1.03,.1-1.54,.11-.16,0-.33-.08-.5-.13,.05-.17,.05-.37,.15-.49,.78-.93,1.58-1.84,2.37-2.76,.57-.67,1.13-1.35,1.75-2.09-.2-.1-.34-.22-.48-.22-.91-.05-1.75,.11-2.39,.87-1.1,1.31-2.24,2.58-3.36,3.88-.45,.53-1.01,.83-1.72,.87-.62,.03-1.24,.09-2.05,.16,.17-.32,.25-.53,.38-.69,.97-1.11,1.95-2.2,2.91-3.31,.34-.39,.67-.78,.96-1.2,.1-.14,.09-.36,.13-.54-.17-.03-.34-.1-.51-.09-.93,.03-1.67,.39-2.28,1.14-1.06,1.29-2.21,2.5-3.31,3.76-.44,.51-1,.75-1.64,.81-.67,.06-1.34,.08-2.01,.12l-.08-.2v-.02h.03Z"/>
    <path id="sand" class="cls-6" d="M41.81,192.63c-4.85,0-9.71,0-14.56,.01-.58,0-.7-.13-.78-.74-.32-2.6,1-4.65,2.06-6.77,2.92-5.82,6.03-11.71,10.96-15.87,.32-.27,1.27-.82,1.4-.85,2.16-.44,3.68,.97,5.04,2.62,4.08,4.94,7.79,10.11,10.38,16.06,.68,1.57,1.12,3.15,.98,4.89-.05,.53-.14,.68-.67,.68-4.94-.02-9.87-.01-14.81-.01"/>
    <path id="hourglass" class="cls-6" d="M41.86,129.35H21.55c-1.15,0-1.73,.6-1.73,1.8,0,1.93-.13,3.88,.61,5.74,.55,1.38,1.11,2.76,1.77,4.09,2.54,5.25,5.45,10.3,8.25,15.41,.93,1.71,1.84,3.44,2.65,5.22,.37,.8,.4,1.59,0,2.38-.71,1.43-1.37,2.89-2.13,4.28-2.97,5.45-6.04,10.85-8.81,16.42-1.57,3.16-2.76,6.37-2.34,10.01,.02,.22,.04,.45,0,.66-.12,.75,.16,.94,.9,.94,14.1-.02,28.2-.02,42.32-.02,.16,0,.33-.01,.48,0,.31,.04,.41-.09,.42-.42,.12-3.23-.06-6.37-1.5-9.39-2.58-5.42-5.49-10.66-8.34-15.93-1.18-2.18-2.38-4.34-3.37-6.61-.33-.77-.34-1.46,0-2.24,.71-1.65,1.52-3.23,2.37-4.81,2.87-5.31,5.84-10.58,8.52-16.02,1.54-3.13,2.7-6.34,2.31-9.94-.04-.27-.04-.55,0-.82,.11-.68-.19-.8-.79-.8-7.09,.02-14.18,.01-21.28,.01M10.96,205.44c0-2.8,.02-5.61,0-8.4,0-.57,.11-.78,.7-.74,1.05,.05,2.1,0,3.16,.02,.46,.01,.59-.13,.58-.6-.01-1.47-.04-2.95,.04-4.41,.13-2.65,1.11-5.07,2.12-7.45,2.66-6.28,6.1-12.12,9.52-17.99,.47-.81,.9-1.64,1.41-2.42,.31-.46,.27-.79,0-1.26-3-5.15-6.06-10.26-8.72-15.62-1.7-3.43-3.37-6.87-4.15-10.67-.39-1.89-.24-3.82-.21-5.73,0-.71-.18-.88-.84-.85-.99,.06-1.99,0-2.99,.02-.42,0-.61-.07-.61-.58,.02-2.69,.02-5.38,0-8.07,0-.4,.11-.57,.49-.51,.13,.02,.27,0,.4,0,20,0,40.02,0,60.03-.02,.75,0,.92,.21,.91,.95-.05,2.52-.04,5.05,0,7.58,0,.49-.09,.68-.61,.66-1.07-.05-2.16,0-3.24-.02-.47-.01-.58,.14-.58,.6,.01,1.5,.04,2.99-.05,4.49-.14,2.62-1.11,5.01-2.11,7.36-2.79,6.59-6.36,12.75-10.01,18.84-.99,1.64-.97,2.76,.02,4.37,3.28,5.4,6.39,10.9,9.05,16.66,1.2,2.6,2.32,5.23,2.89,8.07,.38,1.9,.24,3.81,.21,5.71,0,.68,.14,.91,.82,.86,.97-.07,1.94,.02,2.91-.04,.59-.04,.71,.19,.7,.74-.02,2.8,0,5.61,0,8.4H10.96v.02Z"/>
  </g>
  <g id="Spell">
    <g>
      <path class="cls-6" d="M267.68,177.53c.06-.2,.11-.36,.16-.52,.55-2.04,2.31-3.44,4.43-3.45,3.05-.02,6.1-.04,9.14,.01,.86,.02,1.47-.24,2.07-.83,2.27-2.22,4.95-3.71,8.09-4.24,5.44-.92,10.1,.64,13.96,4.56,.34,.34,.65,.51,1.14,.5,2.63-.02,5.26-.01,7.89,0,.95,0,1.48,.42,1.5,1.15,.02,.76-.53,1.21-1.51,1.21-2.95,0-5.9,.03-8.85-.03-.45,0-1.02-.28-1.31-.62-5.04-5.77-13.3-6.33-18.9-1.12-1.4,1.3-2.77,1.92-4.69,1.81-2.74-.16-5.5-.04-8.26-.04-1.5,0-2.5,.92-2.5,2.3,0,1.41,1.03,2.41,2.51,2.42,4.92,0,9.83,0,14.75,0,.27,0,.63-.06,.79,.08,.33,.3,.77,.72,.77,1.1,0,.37-.47,.76-.76,1.11-.06,.07-.23,.06-.35,.06-5.26,0-10.52,.02-15.78-.03-1.3-.01-2.37-.71-3.23-1.71-.28-.33-.61-.64-.98-.87-5.01-3.06-10.03-6.1-15.05-9.14-.35-.21-.76-.41-1.15-.43-.66-.04-1.19,.28-1.45,.92-.27,.66-.05,1.19,.45,1.65,3.67,3.34,7.34,6.69,11.01,10.03,2.34,2.14,4.74,4.22,7.02,6.42,3.69,3.58,8,4.63,13.01,3.75,6.6-1.15,13.25-2.07,19.87-3.08,.15-.02,.29-.04,.43-.08,1.65-.45,3.17-.22,4.74,.55,2.79,1.38,5.68,2.56,8.53,3.84,.98,.44,1.21,1.44,.49,2.05-.48,.41-.98,.32-1.51,.08-3.11-1.39-6.23-2.79-9.35-4.15-.4-.17-.9-.26-1.33-.2-7.55,1.14-15.1,2.31-22.65,3.47-4.97,.76-9.37-.48-13.1-3.86-6.29-5.69-12.54-11.42-18.81-17.14-1.47-1.35-1.7-3.41-.57-5,1.14-1.6,3.28-2.11,5.06-1.16,.86,.46,1.69,1,2.53,1.51,3.72,2.25,7.43,4.51,11.15,6.77,.18,.11,.37,.21,.61,.34Z"/>
      <path class="cls-6" d="M256.47,154.61c.09-6.15,2.65-11.37,7.05-15.78,3.97-3.98,8.7-6.77,13.92-8.78,.51-.2,1-.26,1.45,.14,.47,.42,.45,.94,.29,1.49-.39,1.34-.88,2.67-1.12,4.04-.64,3.64,1.14,6.91,4.6,8.53,2.42,1.13,4.32,2.8,5.56,5.17,1.86,3.57,1.7,7.26,.26,10.85-2.61,6.47-7.48,10.28-14.44,10.83-6.61,.53-11.78-2.3-15.3-7.95-1.58-2.54-2.25-5.37-2.25-8.53Zm19.81-21.53c-3.12,1.38-5.9,3.02-8.45,5.05-3.52,2.81-6.39,6.13-7.89,10.45-1.48,4.26-1.69,8.52,.42,12.67,2.71,5.35,8.45,8.25,14.57,7.43,5.64-.76,10.82-5.64,11.94-11.21,.65-3.24,.23-6.21-2.01-8.77-1.01-1.16-2.33-1.85-3.67-2.54-3.23-1.66-5.06-4.32-5.56-7.92-.24-1.72,.1-3.37,.65-5.16Z"/>
      <path class="cls-6" d="M296.16,150.35c-.47-.44-.9-.7-1.13-1.08-.68-1.13-1.27-2.33-1.94-3.47-.21-.36-.54-.7-.9-.91-1.14-.68-2.34-1.25-3.46-1.95-.37-.23-.7-.69-.8-1.11-.14-.56,.32-.92,.8-1.18,1.35-.75,2.93-1.27,3.98-2.32,1.03-1.03,1.54-2.6,2.27-3.93,.26-.48,.62-.94,1.19-.8,.42,.1,.88,.44,1.11,.8,.67,1.06,1.18,2.21,1.84,3.27,.29,.47,.74,.9,1.21,1.19,1.06,.66,2.19,1.21,3.28,1.82,1.08,.61,1.07,1.67-.02,2.28-1.2,.67-2.42,1.3-3.61,1.99-.28,.16-.54,.42-.7,.7-.68,1.19-1.3,2.42-2,3.6-.23,.38-.65,.64-1.12,1.09Zm-.01-13.08c-.81,2.27-2.35,3.7-4.55,4.57,2.3,.79,3.71,2.33,4.57,4.54,.82-2.27,2.33-3.72,4.56-4.57-2.26-.82-3.72-2.3-4.57-4.53Z"/>
      <path class="cls-6" d="M254.74,128.47c.44,.4,.85,.64,1.07,1,.57,.92,1.03,1.9,1.58,2.82,.19,.32,.49,.61,.8,.8,.9,.54,1.87,.98,2.75,1.55,.36,.24,.7,.7,.8,1.11,.14,.56-.32,.92-.8,1.18-.91,.49-1.83,.96-2.7,1.5-.35,.22-.68,.55-.89,.91-.54,.88-.99,1.8-1.5,2.7-.61,1.09-1.66,1.09-2.28,.01-.13-.23-.29-.46-.38-.71-.74-2.01-2.16-3.32-4.12-4.09-.27-.11-.52-.27-.77-.42-.9-.57-.9-1.58,.02-2.12,.93-.55,1.9-1.02,2.83-1.58,.36-.22,.69-.54,.91-.9,.56-.92,1.02-1.91,1.59-2.82,.22-.35,.65-.58,1.1-.96Zm-.03,10.65c.64-1.63,1.74-2.69,3.44-3.28-.85-.52-1.63-.83-2.18-1.37-.54-.54-.83-1.32-1.36-2.19-.52,1.85-1.7,2.84-3.25,3.53,1.64,.62,2.7,1.7,3.35,3.31Z"/>
      <path class="cls-6" d="M300.27,166.2c-.45-.36-.93-.56-1.07-.9-.81-1.99-2.18-3.34-4.16-4.18-.98-.41-.99-1.67-.02-2.08,1.97-.85,3.32-2.19,4.17-4.17,.43-1.01,1.68-.98,2.12,.05,.82,1.93,2.14,3.24,4.07,4.07,1.05,.45,1.06,1.7,.01,2.16-1.92,.84-3.29,2.12-4.07,4.07-.15,.37-.63,.6-1.05,.98Zm-2.45-6.11c1.29,.39,1.95,1.15,2.3,2.01,.73-.73,1.44-1.43,2.04-2.02-.62-.62-1.33-1.33-2.06-2.06-.3,.96-1.02,1.61-2.28,2.07Z"/>
      <path class="cls-6" d="M272.43,166.46c-3.75,0-6.93-2.99-7.09-6.7-.17-3.84,2.7-7.12,6.48-7.45,.75-.06,1.26,.16,1.79,.74,.7,.77,1.59,1.36,2.4,2.01,.19,.15,.43,.23,.65,.35,2.68,1.44,3.41,3.23,2.5,6.11-.92,2.91-3.67,4.92-6.73,4.93Zm0-2.36c2.03,0,3.82-1.31,4.46-3.25,.59-1.8,.3-2.41-1.32-3.37-1.15-.68-2.25-1.48-3.28-2.33-.42-.34-.73-.46-1.22-.31-2.17,.65-3.65,2.89-3.34,5.12,.33,2.39,2.33,4.15,4.71,4.14Z"/>
    </g>
  </g>
  <g id="Fight">
    <g>
      <path class="cls-6" d="M416.54,165.07c-4.11,1.94-7.01,4.76-8.81,8.86-.59-.5-.92-.76-1.23-1.04-10.06-9.32-20.12-18.63-30.15-27.98-.66-.61-1.23-1.47-1.49-2.33-1.08-3.58-2.04-7.19-3.02-10.8-.58-2.16-.07-2.7,2.1-2.19,3.76,.89,7.52,1.78,11.27,2.72,.64,.16,1.36,.48,1.79,.95,9.78,10.49,19.52,21.02,29.52,31.81Z"/>
      <path class="cls-6" d="M413.19,158.05c-3.31-3.57-6.45-6.95-9.72-10.48,.8-.9,1.53-1.75,2.29-2.57,3.49-3.77,6.95-7.56,10.5-11.27,.65-.68,1.62-1.21,2.53-1.46,3.67-.98,7.37-1.83,11.06-2.7,2.03-.48,2.56,.08,2.01,2.13-.98,3.67-1.99,7.33-3.03,10.98-.17,.59-.43,1.24-.86,1.65-4.85,4.55-9.74,9.05-14.78,13.72Z"/>
      <path class="cls-6" d="M430.78,167.32c-.3,.41-.53,.86-.88,1.2-6.27,6.29-12.55,12.56-18.82,18.85-.86,.86-1.54,.79-2.42-.02-4.49-4.09-4.28-3.94-1.21-9.24,3.26-5.63,7.4-10.18,13.21-13.17,1.34-.69,2.5-1.75,3.85-2.43,.51-.26,1.53-.18,1.96,.17,1.31,1.08,2.47,2.37,3.66,3.6,.25,.26,.4,.63,.65,1.04Z"/>
      <path class="cls-6" d="M399.12,182.91c-.28,.4-.49,.8-.78,1.11-1.1,1.14-2.25,2.24-3.35,3.38-.76,.79-1.48,.87-2.28,.07-6.36-6.37-12.75-12.72-19.05-19.15-.36-.36-.35-1.61,0-2.04,1.06-1.33,2.3-2.55,3.62-3.62,.42-.34,1.49-.4,1.96-.11,3.76,2.35,7.46,4.8,11.15,7.26,.46,.3,.83,.78,1.14,1.25,2.31,3.49,4.6,6.99,6.88,10.49,.27,.41,.46,.88,.72,1.37Z"/>
      <path class="cls-6" d="M370.76,184.51c3.15,0,5.81,2.65,5.84,5.81,.03,3.13-2.62,5.83-5.77,5.88-3.22,.05-5.95-2.67-5.91-5.91,.03-3.16,2.69-5.79,5.85-5.78Z"/>
      <path class="cls-6" d="M432.98,196.2c-3.14,.02-5.83-2.61-5.89-5.76-.06-3.2,2.69-5.96,5.91-5.93,3.15,.03,5.78,2.7,5.78,5.86,0,3.16-2.64,5.81-5.8,5.84Z"/>
      <path class="cls-6" d="M378.84,188.9c-1-3.46-3.01-5.63-6.67-6.6,1.82-2.27,3.54-4.39,5.18-6.44,2.61,2.66,5.16,5.26,7.78,7.93-1.88,1.52-4.02,3.25-6.3,5.1Z"/>
      <path class="cls-6" d="M426.27,175.81c1.65,2.03,3.36,4.13,5.22,6.42-3.45,1.01-5.67,3.05-6.6,6.69-2.29-1.85-4.43-3.58-6.49-5.24,2.61-2.61,5.16-5.16,7.87-7.87Z"/>
      <path class="cls-6" d="M400.15,170.13c-1.39,1.3-2.59,2.42-4.05,3.77-2.01-3.93-4.83-6.98-8.91-8.85,1.25-1.34,2.27-2.44,3.45-3.71,3.16,2.92,6.25,5.78,9.5,8.79Z"/>
    </g>
  </g>
  <g id="Disease">
    <g id="disease">
      <path class="cls-4" d="M362.86,50.69c.13-.07,.27-.14,.39-.22,5.38-3.43,10.77-6.86,16.15-10.29,.2-.13,.29-.25,.3-.51,.23-5.8,.47-11.59,.71-17.39,.03-.69,.05-1.37,.1-2.05,0-.12,.09-.27,.19-.33,5.74-3.34,11.48-6.67,17.23-10,.03-.02,.06-.02,.13,0-.09,.09-.17,.19-.26,.28-3.72,3.79-7.44,7.58-11.17,11.36-.17,.17-.23,.33-.2,.57,.28,2.39,.55,4.77,.83,7.16,.25,2.16,.49,4.32,.74,6.48,.11,.92,.21,1.84,.33,2.75,.01,.11,.16,.24,.27,.29,2.24,.96,4.48,1.91,6.72,2.87,1.84,.78,3.68,1.56,5.52,2.36,.11,.05,.27,.19,.27,.29,.02,1.19,.01,2.37,.01,3.59h-7.78c1.31,2.29,2.59,4.51,3.88,6.76-.11,.07-.2,.13-.3,.19-.86,.5-1.73,.99-2.58,1.51-.27,.16-.44,.17-.7-.03-3.48-2.66-6.98-5.3-10.46-7.96-.21-.16-.37-.17-.61-.07-4.97,2.17-9.94,4.33-14.91,6.49-.23,.1-.34,.23-.41,.48-1.41,5.19-2.84,10.37-4.26,15.56-.03,.12-.09,.24-.14,.36v-20.51h0Z"/>
      <path class="cls-4" d="M440.83,71.14c-.17-.56-.35-1.11-.51-1.67-1.3-4.76-2.61-9.51-3.9-14.27-.05-.19-.14-.31-.33-.39-5.01-2.17-10.02-4.35-15.03-6.54-.21-.09-.35-.06-.52,.07-3.5,2.67-7.02,5.32-10.52,7.99-.24,.18-.4,.19-.65,.03-.95-.58-1.92-1.13-2.92-1.7,1.29-2.24,2.57-4.48,3.88-6.76h-7.77v-.37c0-1.02,.01-2.05,0-3.07,0-.28,.1-.39,.33-.49,4.04-1.71,8.08-3.44,12.13-5.15,.24-.1,.34-.22,.37-.49,.26-2.38,.54-4.75,.81-7.13,.27-2.36,.54-4.71,.81-7.07,.08-.73,.18-1.47,.24-2.21,.01-.12-.08-.28-.18-.38-1.93-1.97-3.86-3.94-5.79-5.91-1.83-1.86-3.65-3.72-5.48-5.58-.07-.07-.13-.14-.17-.25,.1,.05,.2,.1,.3,.16,5.65,3.28,11.3,6.56,16.95,9.82,.22,.13,.3,.27,.3,.51,.09,2.33,.19,4.65,.28,6.98,.14,3.48,.29,6.96,.43,10.44,.03,.64,.07,1.28,.07,1.92,0,.24,.09,.36,.28,.49,4.68,2.98,9.36,5.96,14.04,8.94,.84,.54,1.68,1.07,2.52,1.61v20.44h0Z"/>
      <path class="cls-4" d="M384.11,87.79c-.1-.07-.2-.16-.31-.22-5.59-3.25-11.19-6.49-16.78-9.73-.1-.06-.2-.12-.29-.24,.08,.01,.17,.02,.24,.04,5.16,1.35,10.31,2.7,15.47,4.06,.24,.06,.4,.03,.59-.12,4.33-3.24,8.67-6.48,13.01-9.7,.23-.17,.33-.33,.29-.64-.31-2.39-.6-4.79-.89-7.19-.24-1.99-.49-3.97-.74-5.96-.03-.22,.02-.35,.23-.47,1-.56,1.99-1.14,3-1.73,1.29,2.25,2.58,4.49,3.88,6.76,1.3-2.26,2.58-4.49,3.88-6.75,.22,.12,.42,.24,.62,.36,.79,.46,1.57,.92,2.36,1.36,.22,.12,.27,.25,.24,.49-.21,1.66-.41,3.32-.62,4.99-.27,2.2-.54,4.4-.81,6.61-.07,.55-.12,1.1-.21,1.65-.03,.22,.04,.33,.2,.46,3.28,2.44,6.56,4.89,9.83,7.33,1.09,.81,2.18,1.62,3.26,2.44,.2,.15,.37,.19,.62,.13,3.73-.99,7.47-1.96,11.2-2.94,1.45-.38,2.91-.77,4.36-1.15,.08-.02,.17-.03,.27-.01-.3,.17-.59,.35-.89,.52-5.47,3.17-10.94,6.35-16.41,9.52-.07,.04-.14,.1-.2,.15h-.13c-.08-.05-.15-.12-.23-.16-5.69-2.99-11.38-5.98-17.06-8.98-.19-.1-.33-.12-.53-.01-4.97,2.62-9.94,5.23-14.91,7.85-.81,.43-1.61,.87-2.42,1.31h-.13Z"/>
      <path class="cls-4" d="M414.15,37.42c-.93,.4-1.8,.77-2.68,1.14-.88,.37-1.75,.74-2.62,1.13-.18,.08-.31,.06-.47-.04-2.08-1.27-4.16-2.54-6.24-3.82-.22-.14-.37-.15-.6,0-2.09,1.29-4.2,2.57-6.3,3.84-.1,.06-.27,.1-.38,.05-1.76-.74-3.51-1.49-5.26-2.23-.02,0-.03-.03-.06-.07,.1-.06,.19-.13,.29-.18,3.9-2.26,7.8-4.52,11.69-6.78,.19-.11,.33-.16,.56-.03,3.94,2.29,7.89,4.58,11.83,6.86,.06,.03,.11,.07,.23,.14h0Z"/>
      <path class="cls-4" d="M394.99,71.08c-.64-.37-1.27-.74-1.89-1.1-3.37-1.96-6.74-3.92-10.12-5.87-.22-.13-.31-.27-.31-.53,0-4.52,0-9.03,0-13.55v-.38c.18,.13,.3,.23,.43,.32,1.38,1.05,2.77,2.1,4.16,3.13,.18,.13,.23,.28,.23,.49-.06,2.45-.11,4.9-.17,7.34,0,.23,.06,.35,.25,.45,2.14,1.17,4.27,2.35,6.41,3.52,.22,.12,.33,.24,.36,.51,.21,1.85,.45,3.69,.67,5.54,0,.03,0,.06-.02,.12h0Z"/>
      <path class="cls-4" d="M420.9,49.62v.39c0,4.52,0,9.03,0,13.55,0,.28-.08,.42-.32,.56-3.9,2.26-7.79,4.52-11.69,6.78-.08,.05-.17,.09-.3,.15,.08-.68,.15-1.31,.23-1.94,.14-1.2,.3-2.39,.43-3.6,.03-.32,.15-.51,.44-.67,2.1-1.14,4.19-2.3,6.29-3.45,.21-.11,.29-.23,.28-.47-.07-2.44-.11-4.87-.18-7.31,0-.27,.07-.43,.29-.59,1.43-1.06,2.84-2.14,4.26-3.21,.07-.05,.14-.1,.27-.19h0Z"/>
    </g>
  </g>
  <g id="treasure">
    <g id="divers">
      <g class="cls-3">
        <g class="cls-7">
          <path class="cls-4" d="M161.87,52.53c-1.99-.03-3.34,1.3-3.39,3.32-.05,1.99,1.31,3.37,3.33,3.4,1.98,.03,3.34-1.3,3.39-3.32,.05-1.99-1.31-3.37-3.33-3.4m-27.56-30.22c.04,.11,.07,.19,.1,.27,1.12,2.86,2.24,5.71,3.36,8.57,.23,.6,.24,.6,.87,.52,1.58-.2,3.17-.38,4.77-.3,.22,.01,.35-.07,.48-.24,.91-1.26,2.05-2.29,3.35-3.12,2.91-1.86,6.09-2.62,9.53-2.25,2.69,.29,5.13,1.22,7.27,2.89,.39,.3,.71,.35,1.15,.22,2.36-.68,4.72-.68,7.08-.02,3.09,.85,5.67,2.48,7.61,5.07,.06,.08,.2,.14,.31,.15,.81,.03,1.61,.02,2.41,.08,.5,.03,.99,.15,1.49,.24,.2,.04,.29-.04,.37-.23,1.6-3.86,3.21-7.72,4.82-11.59,.03-.07,.06-.15,.09-.25h-55.07Zm54.41,23.5c-.01-.17-.01-.33-.04-.49-.2-1.21-.88-2.13-1.84-2.84-1.89-1.4-4.01-1.88-6.31-1.3-1.22,.31-2.41,.73-3.61,1.09-.21,.06-.41,.12-.63,.18-.32-1.06-.62-2.1-.94-3.13-.1-.31-.22-.62-.38-.9-.53-.96-1.34-1.66-2.3-2.15-2.36-1.22-4.77-1.34-7.23-.3-.91,.39-1.85,.71-2.77,1.05-.06,.02-.18,0-.21-.04-.57-.67-1.15-1.34-1.68-2.04-.38-.51-.81-.97-1.34-1.32-1.19-.79-2.52-1.16-3.94-1.23-1.72-.08-3.31,.33-4.76,1.28-1.04,.68-1.8,1.59-2.13,2.83-.25,.92-.54,1.83-.82,2.75-.02,.06-.05,.12-.07,.18-.9-.27-1.77-.52-2.64-.8-1.39-.45-2.8-.68-4.26-.47-1.68,.24-3.19,.85-4.43,2.03-.72,.68-1.26,1.48-1.36,2.49-.06,.6-.03,1.21-.04,1.81,0,.43,0,.87,0,1.32h53.75Zm-53.73,6.74v13.43c1.84,.05,3.43,.69,4.72,1.98,1.3,1.3,1.94,2.89,1.98,4.72h40.31c.05-1.85,.69-3.43,1.98-4.72,1.3-1.3,2.89-1.93,4.72-1.98v-13.42h-16.78v6.58c0,.74-.09,1.46-.32,2.16-.93,2.82-3.45,4.67-6.43,4.69-2.22,.01-4.45,0-6.68,0-1.41,0-2.72-.4-3.87-1.23-1.92-1.4-2.86-3.3-2.86-5.68v-6.52h-16.77Zm60.46,26.86h-67.19c0-.09-.01-.18-.01-.27,0-11.97,0-23.94,0-35.91,0-3.56,1.38-6.47,4.18-8.68,.15-.12,.18-.21,.11-.39-1.39-3.85-2.78-7.7-4.18-11.54-.17-.46-.1-.92-.06-1.37,.2-1.98,.88-3.76,2.13-5.32,1.08-1.35,2.44-2.34,4.05-2.98,1.35-.54,2.74-.74,4.19-.74,15.48,0,30.96,0,46.44,0,1.74,0,3.4,.32,4.96,1.11,1.59,.8,2.86,1.96,3.81,3.46,1,1.58,1.51,3.32,1.56,5.19,0,.2-.03,.42-.1,.61-1.72,4.53-3.44,9.06-5.17,13.59-.03,.08-.06,.15-.06,.18,.73,.65,1.46,1.24,2.12,1.91,1.52,1.54,2.57,3.35,3,5.49,.14,.72,.22,1.46,.22,2.2,.01,11.06,0,22.12,0,33.19v.28h0Z"/>
        </g>
      </g>
    </g>
  </g>
</svg>